<svg viewBox="0 0 19 20" fill="none" xmlns="http://www.w3.org/2000/svg" class="svg"><path d="M9.2219 6.41428L9.42774 11.0327M17.2421 6.78844L17.5103 12.8056C17.5542 13.7908 17.0672 14.7293 16.2362 15.2687L11.1453 18.519C10.3139 19.0496 9.25827 19.0967 8.37421 18.6425L3.01432 15.858C2.58275 15.6328 2.21804 15.298 1.95682 14.8873C1.6956 14.4765 1.54707 14.0043 1.52616 13.518L1.25798 7.50082C1.21407 6.51556 1.70112 5.57715 2.53208 5.03769L7.62301 1.78743C8.45436 1.25677 9.51 1.20972 10.3941 1.66393L15.754 4.44841C16.6296 4.91181 17.1978 5.79438 17.2421 6.78844Z" stroke="currentColor" stroke-width="1.5" stroke-linecap="round" stroke-linejoin="round"/><path d="M9.55322 13.8477L9.55714 13.9356" stroke="currentColor" stroke-width="2" stroke-linecap="round" stroke-linejoin="round"/></svg>