<svg xmlns="http://www.w3.org/2000/svg" width="19" height="19" fill="none"><path fill="currentColor" d="M8.016 2.375a2.681 2.681 0 0 0-2.672 2.672c0 .475.135.916.352 1.299-1.069.626-1.906 1.514-2.356 2.56h-.074a.29.29 0 0 1-.297-.297.29.29 0 0 1 .13-.24l-.687-.966a1.47 1.47 0 0 0-.63 1.206c0 .73.544 1.33 1.243 1.448-.03.208-.056.415-.056.63 0 1.48.786 2.763 1.93 3.711-.144.594-.072 1.227.389 1.69a1.819 1.819 0 0 0 2.56 0l.223-.224c.464.086.93.167 1.429.167s.965-.081 1.429-.167l.222.223a1.819 1.819 0 0 0 2.561 0c.452-.452.52-1.067.39-1.652.476-.386.883-.85 1.205-1.373h1.318v-4.75h-1.354a5.32 5.32 0 0 0-.762-.964l.335-1.837V4.75h-.594s-1.426.024-2.635.928a9.265 9.265 0 0 0-.965-.223 2.31 2.31 0 0 0 .037-.408 2.681 2.681 0 0 0-2.671-2.672Zm0 1.188c.825 0 1.484.659 1.484 1.484 0 .102-.018.2-.037.297a7.735 7.735 0 0 0-2.69.5 1.437 1.437 0 0 1-.242-.797c0-.825.66-1.484 1.485-1.484Zm5.492 2.486c.01-.002.01.002.018 0l-.222 1.354-.056.316.26.222c.396.344.724.76.965 1.225l.166.334h.799v2.375h-.799l-.166.334c-.29.573-.747 1.076-1.336 1.502l-.427.316.26.483a.597.597 0 0 1-.093.742.603.603 0 0 1-.872 0l-.427-.427-.24-.222-.317.074a6.796 6.796 0 0 1-1.521.167 6.804 6.804 0 0 1-1.522-.167l-.314-.074-.242.222-.427.427a.603.603 0 0 1-.872 0 .597.597 0 0 1-.093-.743l.26-.482-.427-.315c-1.074-.78-1.707-1.844-1.707-3.024 0-2.222 2.322-4.157 5.344-4.157.73 0 1.426.11 2.06.316l.315.111.26-.223c.424-.378.948-.581 1.373-.686ZM13.063 9.5a.595.595 0 0 0-.594.594c0 .326.267.594.594.594a.595.595 0 0 0 .593-.594.595.595 0 0 0-.594-.594Z"/></svg>
